%TF.GenerationSoftware,KiCad,Pcbnew,8.0.3+1*%
%TF.CreationDate,2024-06-27T20:46:53-04:00*%
%TF.ProjectId,XIAO_REV,5849414f-5f52-4455-962e-6b696361645f,rev?*%
%TF.SameCoordinates,Original*%
%TF.FileFunction,Copper,L1,Top*%
%TF.FilePolarity,Positive*%
%FSLAX46Y46*%
G04 Gerber Fmt 4.6, Leading zero omitted, Abs format (unit mm)*
G04 Created by KiCad (PCBNEW 8.0.3+1) date 2024-06-27 20:46:53*
%MOMM*%
%LPD*%
G01*
G04 APERTURE LIST*
G04 Aperture macros list*
%AMRoundRect*
0 Rectangle with rounded corners*
0 $1 Rounding radius*
0 $2 $3 $4 $5 $6 $7 $8 $9 X,Y pos of 4 corners*
0 Add a 4 corners polygon primitive as box body*
4,1,4,$2,$3,$4,$5,$6,$7,$8,$9,$2,$3,0*
0 Add four circle primitives for the rounded corners*
1,1,$1+$1,$2,$3*
1,1,$1+$1,$4,$5*
1,1,$1+$1,$6,$7*
1,1,$1+$1,$8,$9*
0 Add four rect primitives between the rounded corners*
20,1,$1+$1,$2,$3,$4,$5,0*
20,1,$1+$1,$4,$5,$6,$7,0*
20,1,$1+$1,$6,$7,$8,$9,0*
20,1,$1+$1,$8,$9,$2,$3,0*%
%AMOutline5P*
0 Free polygon, 5 corners , with rotation*
0 The origin of the aperture is its center*
0 number of corners: always 5*
0 $1 to $10 corner X, Y*
0 $11 Rotation angle, in degrees counterclockwise*
0 create outline with 5 corners*
4,1,5,$1,$2,$3,$4,$5,$6,$7,$8,$9,$10,$1,$2,$11*%
%AMOutline6P*
0 Free polygon, 6 corners , with rotation*
0 The origin of the aperture is its center*
0 number of corners: always 6*
0 $1 to $12 corner X, Y*
0 $13 Rotation angle, in degrees counterclockwise*
0 create outline with 6 corners*
4,1,6,$1,$2,$3,$4,$5,$6,$7,$8,$9,$10,$11,$12,$1,$2,$13*%
%AMOutline7P*
0 Free polygon, 7 corners , with rotation*
0 The origin of the aperture is its center*
0 number of corners: always 7*
0 $1 to $14 corner X, Y*
0 $15 Rotation angle, in degrees counterclockwise*
0 create outline with 7 corners*
4,1,7,$1,$2,$3,$4,$5,$6,$7,$8,$9,$10,$11,$12,$13,$14,$1,$2,$15*%
%AMOutline8P*
0 Free polygon, 8 corners , with rotation*
0 The origin of the aperture is its center*
0 number of corners: always 8*
0 $1 to $16 corner X, Y*
0 $17 Rotation angle, in degrees counterclockwise*
0 create outline with 8 corners*
4,1,8,$1,$2,$3,$4,$5,$6,$7,$8,$9,$10,$11,$12,$13,$14,$15,$16,$1,$2,$17*%
G04 Aperture macros list end*
%TA.AperFunction,SMDPad,CuDef*%
%ADD10O,1.700000X1.700000*%
%TD*%
%TA.AperFunction,SMDPad,CuDef*%
%ADD11Outline8P,-0.700000X0.420000X-0.420000X0.700000X0.420000X0.700000X0.700000X0.420000X0.700000X-0.420000X0.420000X-0.700000X-0.420000X-0.700000X-0.700000X-0.420000X90.000000*%
%TD*%
%TA.AperFunction,SMDPad,CuDef*%
%ADD12Outline6P,-0.600000X0.165000X-0.490000X0.275000X0.490000X0.275000X0.600000X0.165000X0.600000X-0.275000X-0.600000X-0.275000X90.000000*%
%TD*%
%TA.AperFunction,SMDPad,CuDef*%
%ADD13Outline6P,-0.600000X0.275000X0.600000X0.275000X0.600000X-0.165000X0.490000X-0.275000X-0.490000X-0.275000X-0.600000X-0.165000X90.000000*%
%TD*%
%TA.AperFunction,SMDPad,CuDef*%
%ADD14Outline8P,-0.575000X0.345000X-0.345000X0.575000X0.345000X0.575000X0.575000X0.345000X0.575000X-0.345000X0.345000X-0.575000X-0.345000X-0.575000X-0.575000X-0.345000X180.000000*%
%TD*%
%TA.AperFunction,SMDPad,CuDef*%
%ADD15Outline8P,-0.900000X0.300000X-0.700000X0.500000X0.700000X0.500000X0.900000X0.300000X0.900000X-0.300000X0.700000X-0.500000X-0.700000X-0.500000X-0.900000X-0.300000X0.000000*%
%TD*%
%TA.AperFunction,SMDPad,CuDef*%
%ADD16RoundRect,0.250000X-0.375000X-0.750000X0.375000X-0.750000X0.375000X0.750000X-0.375000X0.750000X0*%
%TD*%
%TA.AperFunction,SMDPad,CuDef*%
%ADD17Outline8P,-0.500000X0.255000X-0.330000X0.425000X0.330000X0.425000X0.500000X0.255000X0.500000X-0.255000X0.330000X-0.425000X-0.330000X-0.425000X-0.500000X-0.255000X90.000000*%
%TD*%
%TA.AperFunction,SMDPad,CuDef*%
%ADD18Outline8P,-0.750000X0.450000X-0.450000X0.750000X0.450000X0.750000X0.750000X0.450000X0.750000X-0.450000X0.450000X-0.750000X-0.450000X-0.750000X-0.750000X-0.450000X90.000000*%
%TD*%
%TA.AperFunction,SMDPad,CuDef*%
%ADD19Outline8P,-0.550000X0.300000X-0.350000X0.500000X0.350000X0.500000X0.550000X0.300000X0.550000X-0.300000X0.350000X-0.500000X-0.350000X-0.500000X-0.550000X-0.300000X90.000000*%
%TD*%
%TA.AperFunction,ViaPad*%
%ADD20C,0.300000*%
%TD*%
%TA.AperFunction,ViaPad*%
%ADD21C,0.600000*%
%TD*%
%TA.AperFunction,Conductor*%
%ADD22C,0.160000*%
%TD*%
%TA.AperFunction,Conductor*%
%ADD23C,0.200000*%
%TD*%
G04 APERTURE END LIST*
D10*
%TO.P,,3*%
%TO.N,GND*%
X167640000Y-78375000D03*
%TD*%
%TO.P,,4*%
%TO.N,GND*%
X167640000Y-80915000D03*
%TD*%
D11*
%TO.P,,18*%
%TO.N,MTCK*%
X161340000Y-77530000D03*
%TD*%
%TO.P,,15*%
%TO.N,MTMS*%
X158800000Y-77530000D03*
%TD*%
D12*
%TO.P,,TP*%
%TO.N,N/C*%
X160720000Y-90380000D03*
%TD*%
D13*
%TO.P,,TP*%
%TO.N,N/C*%
X159420000Y-90380000D03*
%TD*%
D14*
%TO.P,,TP*%
%TO.N,N/C*%
X161340000Y-89440000D03*
%TD*%
%TO.P,,TP*%
%TO.N,N/C*%
X158800000Y-89440000D03*
%TD*%
D15*
%TO.P,,1*%
%TO.N,R18*%
X156920000Y-92370000D03*
%TD*%
%TO.P,,2*%
%TO.N,R15*%
X156920000Y-96070000D03*
%TD*%
%TO.P,,2*%
%TO.N,R15*%
X163120000Y-96070000D03*
%TD*%
%TO.P,,1*%
%TO.N,R18*%
X163120000Y-92370000D03*
%TD*%
D16*
%TO.P,,2*%
%TO.N,BAT+*%
X160020000Y-99750000D03*
%TD*%
%TO.P,,1*%
%TO.N,N/C*%
X157520000Y-99750000D03*
%TD*%
%TO.P,,3*%
%TO.N,BAT-*%
X162520000Y-99750000D03*
%TD*%
D17*
%TO.P,,2*%
%TO.N,NFCR*%
X165680000Y-98550000D03*
%TD*%
%TO.P,,1*%
%TO.N,NFCL*%
X154400000Y-98530000D03*
%TD*%
D14*
%TO.P,,22*%
%TO.N,BAT+*%
X155010000Y-80550000D03*
%TD*%
%TO.P,,21*%
%TO.N,BAT-*%
X155010000Y-78650000D03*
%TD*%
D17*
%TO.P,,2*%
%TO.N,BAT-*%
X165670000Y-100760000D03*
%TD*%
%TO.P,,1*%
%TO.N,BAT+*%
X154390000Y-100740000D03*
%TD*%
D10*
%TO.P,,8*%
%TO.N,R8*%
X167640000Y-88530000D03*
%TD*%
%TO.P,,4*%
%TO.N,R4*%
X152400000Y-80910000D03*
%TD*%
D11*
%TO.P,,15*%
%TO.N,R18*%
X158800000Y-74990000D03*
%TD*%
%TO.P,,18*%
%TO.N,R15*%
X161340000Y-74990000D03*
%TD*%
D10*
%TO.P,,7*%
%TO.N,R7*%
X152400000Y-88530000D03*
%TD*%
D18*
%TO.P,,17*%
%TO.N,SWCLK*%
X161340000Y-72450000D03*
%TD*%
D10*
%TO.P,,10*%
%TO.N,R10*%
X167640000Y-83450000D03*
%TD*%
D11*
%TO.P,,16*%
%TO.N,SWDIO*%
X158800000Y-72450000D03*
%TD*%
D10*
%TO.P,,1*%
%TO.N,R1*%
X152400000Y-73290000D03*
%TD*%
%TO.P,,13*%
%TO.N,R13*%
X167640000Y-75830000D03*
%TD*%
%TO.P,,11*%
%TO.N,R11*%
X167640000Y-80910000D03*
%TD*%
%TO.P,,5*%
%TO.N,R5*%
X152400000Y-83450000D03*
%TD*%
%TO.P,,14*%
%TO.N,R14*%
X167640000Y-73290000D03*
%TD*%
%TO.P,,12*%
%TO.N,R12*%
X167640000Y-78370000D03*
%TD*%
%TO.P,,9*%
%TO.N,R9*%
X167640000Y-85990000D03*
%TD*%
%TO.P,,6*%
%TO.N,R6*%
X152400000Y-85990000D03*
%TD*%
%TO.P,,3*%
%TO.N,R3*%
X152400000Y-78370000D03*
%TD*%
%TO.P,,2*%
%TO.N,R2*%
X152400000Y-75830000D03*
%TD*%
D19*
%TO.P,,20*%
%TO.N,NFCR*%
X165770000Y-89900000D03*
%TD*%
%TO.P,,19*%
%TO.N,NFCL*%
X163870000Y-89900000D03*
%TD*%
D20*
%TO.N,GND*%
X157836164Y-87905206D03*
X153094063Y-82169749D03*
%TO.N,P5*%
X156974315Y-87609999D03*
X158790001Y-84084315D03*
X153430000Y-90230000D03*
X153787843Y-89462157D03*
X162640685Y-88270000D03*
X162577500Y-84905000D03*
%TO.N,P6*%
X163323762Y-98013762D03*
X162240685Y-86075000D03*
%TO.N,RX*%
X153504623Y-76368937D03*
X161193491Y-81077804D03*
%TO.N,P4*%
X163560000Y-83760000D03*
X166700000Y-92575686D03*
%TO.N,P21*%
X156440000Y-79380000D03*
%TO.N,P4*%
X159547935Y-80547457D03*
X162410000Y-83760000D03*
%TO.N,P19*%
X156300000Y-82610000D03*
X154550003Y-88270000D03*
%TO.N,GND*%
X154042591Y-79528901D03*
X153058670Y-77403016D03*
%TO.N,SCL*%
X155989315Y-86055000D03*
X156892622Y-81560000D03*
%TO.N,P20*%
X159317211Y-81012789D03*
X157340000Y-78420000D03*
%TO.N,P18*%
X156410000Y-83760000D03*
X154080000Y-88270000D03*
%TO.N,5V*%
X163913995Y-76404999D03*
X161093894Y-79559580D03*
%TO.N,RST*%
X156979533Y-79900467D03*
X158650054Y-80345632D03*
%TO.N,P21*%
X156410000Y-76410000D03*
X158790000Y-85390000D03*
X156210000Y-88940000D03*
%TO.N,GND*%
X165140000Y-78680000D03*
X167219323Y-76921758D03*
X164130000Y-78750000D03*
X161999824Y-81031898D03*
%TO.N,P20*%
X165980000Y-85110969D03*
X167640000Y-84819997D03*
%TO.N,3V*%
X166783864Y-81846136D03*
X165135838Y-83028315D03*
%TO.N,P19*%
X167650833Y-87360048D03*
X165960000Y-86390000D03*
%TO.N,P18*%
X167454365Y-89900000D03*
X165415000Y-88110686D03*
%TO.N,SCLK*%
X166610000Y-93610000D03*
X165799999Y-90930000D03*
%TO.N,TX*%
X160230000Y-74750000D03*
%TO.N,R18*%
X155930000Y-80150000D03*
D21*
X159770000Y-75870000D03*
%TO.N,R15*%
X165560776Y-75547021D03*
%TO.N,R18*%
X154813950Y-75930001D03*
D20*
%TO.N,R8*%
X165050000Y-87180000D03*
%TO.N,R9*%
X165050000Y-86060000D03*
%TO.N,R10*%
X165170000Y-84910000D03*
%TO.N,R11*%
X165170000Y-83780000D03*
%TO.N,R12*%
X165240000Y-82570000D03*
%TO.N,R13*%
X165140000Y-78209997D03*
%TO.N,R14*%
X166010477Y-75973837D03*
%TO.N,R7*%
X155493023Y-87490691D03*
%TO.N,R6*%
X153523199Y-85662394D03*
%TO.N,R5*%
X153240134Y-84264298D03*
%TO.N,R4*%
X154835000Y-83745000D03*
%TO.N,R3*%
X154830000Y-82590000D03*
%TO.N,R2*%
X154229999Y-77590761D03*
%TO.N,R1*%
X152564156Y-74448429D03*
D21*
%TO.N,MTCK*%
X165274044Y-74832297D03*
%TO.N,MTMS*%
X154994115Y-74132286D03*
%TO.N,R18*%
X155900000Y-73970000D03*
%TO.N,R15*%
X164260000Y-73710000D03*
%TO.N,SWCLK*%
X162750000Y-73140000D03*
%TO.N,SWDIO*%
X157827766Y-74177553D03*
D20*
%TO.N,TX*%
X161200001Y-80505608D03*
%TD*%
D22*
%TO.N,MTMS*%
X155381829Y-74520000D02*
X156900000Y-74520000D01*
X157590000Y-75210000D02*
X157590000Y-76320000D01*
X157590000Y-76320000D02*
X158800000Y-77530000D01*
X154994115Y-74132286D02*
X155381829Y-74520000D01*
X156900000Y-74520000D02*
X157590000Y-75210000D01*
%TO.N,R18*%
X155900000Y-73970000D02*
X156110000Y-74180000D01*
X156110000Y-74180000D02*
X157040832Y-74180000D01*
X157040832Y-74180000D02*
X157830832Y-74970000D01*
X157830832Y-74970000D02*
X158700000Y-74970000D01*
%TO.N,MTCK*%
X165274044Y-74832297D02*
X165274044Y-75045956D01*
X165274044Y-75045956D02*
X164610000Y-75710000D01*
X164610000Y-75710000D02*
X163420000Y-75710000D01*
X163420000Y-75710000D02*
X161600000Y-77530000D01*
X161600000Y-77530000D02*
X161340000Y-77530000D01*
%TO.N,P5*%
X153787843Y-89462157D02*
X153787843Y-89872157D01*
X153787843Y-89872157D02*
X153430000Y-90230000D01*
%TO.N,R3*%
X153065000Y-80015000D02*
X154010000Y-80960000D01*
X153065000Y-79035000D02*
X152400000Y-78370000D01*
X153065000Y-80015000D02*
X153065000Y-79035000D01*
%TO.N,SCL*%
X156892622Y-81560000D02*
X156892622Y-82735932D01*
X156892622Y-82735932D02*
X157340000Y-83183310D01*
X157340000Y-83183310D02*
X157340000Y-84704315D01*
X157340000Y-84704315D02*
X155989315Y-86055000D01*
%TO.N,BAT+*%
X157558308Y-81660000D02*
X157058308Y-81160000D01*
X158430000Y-81660000D02*
X157558308Y-81660000D01*
X159190000Y-82420000D02*
X158430000Y-81660000D01*
X157961690Y-88285000D02*
X158840356Y-88285000D01*
X159190000Y-87935356D02*
X159190000Y-82420000D01*
X155565000Y-90681690D02*
X157961690Y-88285000D01*
X158840356Y-88285000D02*
X159190000Y-87935356D01*
X155565000Y-96280000D02*
X155565000Y-90681690D01*
X155576446Y-96280000D02*
X155565000Y-96280000D01*
X156626446Y-97330000D02*
X155576446Y-96280000D01*
X158680000Y-97330000D02*
X156626446Y-97330000D01*
X160020000Y-98670000D02*
X158680000Y-97330000D01*
X160020000Y-99750000D02*
X160020000Y-98670000D01*
X157058308Y-81160000D02*
X156740000Y-81160000D01*
X156740000Y-81160000D02*
X156130000Y-80550000D01*
X156130000Y-80550000D02*
X155010000Y-80550000D01*
%TO.N,R18*%
X158977046Y-88615000D02*
X158351446Y-88615000D01*
X155930000Y-80150000D02*
X155905000Y-80150000D01*
X156876690Y-80830000D02*
X158066690Y-80830000D01*
X154629999Y-76113952D02*
X154813950Y-75930001D01*
X158066690Y-80830000D02*
X159520000Y-82283310D01*
X154799376Y-79720000D02*
X154180000Y-79100624D01*
X159520000Y-88072046D02*
X158977046Y-88615000D01*
X155905000Y-80150000D02*
X155475000Y-79720000D01*
X159520000Y-82283310D02*
X159520000Y-88072046D01*
X156920000Y-90046446D02*
X156920000Y-92370000D01*
X156196690Y-80150000D02*
X156876690Y-80830000D01*
X155930000Y-80150000D02*
X156196690Y-80150000D01*
X158351446Y-88615000D02*
X156920000Y-90046446D01*
X155475000Y-79720000D02*
X154799376Y-79720000D01*
X154180000Y-79100624D02*
X154180000Y-77990761D01*
X154180000Y-77990761D02*
X154395685Y-77990761D01*
X154395685Y-77990761D02*
X154629999Y-77756447D01*
X154629999Y-77756447D02*
X154629999Y-76113952D01*
%TO.N,R15*%
X164670000Y-97149999D02*
X164670000Y-99136458D01*
X164066620Y-90700000D02*
X164929999Y-91563379D01*
X163120000Y-96280000D02*
X163120000Y-96070000D01*
X163466446Y-90700000D02*
X164066620Y-90700000D01*
X161580000Y-97820000D02*
X163120000Y-96280000D01*
X163120000Y-90353554D02*
X163466446Y-90700000D01*
X161580000Y-100710000D02*
X161580000Y-97820000D01*
X163120000Y-80370000D02*
X163120000Y-90353554D01*
X162380000Y-101510000D02*
X161580000Y-100710000D01*
X164929999Y-96890000D02*
X164670000Y-97149999D01*
X164740000Y-78750000D02*
X163120000Y-80370000D01*
X165178542Y-99645000D02*
X165670626Y-99645000D01*
X164670000Y-99136458D02*
X165178542Y-99645000D01*
X164740000Y-78044311D02*
X164740000Y-78750000D01*
X165670626Y-99645000D02*
X166350000Y-100324374D01*
X165390000Y-77394311D02*
X164740000Y-78044311D01*
X164929999Y-91563379D02*
X164929999Y-96890000D01*
X165390000Y-75717797D02*
X165390000Y-77394311D01*
X165560776Y-75547021D02*
X165390000Y-75717797D01*
X166350000Y-100324374D02*
X166350000Y-101195626D01*
X166350000Y-101195626D02*
X166035626Y-101510000D01*
X166035626Y-101510000D02*
X162380000Y-101510000D01*
%TO.N,R14*%
X166010477Y-75973837D02*
X166010477Y-75903888D01*
X166010477Y-75903888D02*
X167640000Y-74274365D01*
X167640000Y-74274365D02*
X167640000Y-73290000D01*
%TO.N,GND*%
X154970000Y-87190000D02*
X155190000Y-86970000D01*
X154970000Y-88473310D02*
X154970000Y-87190000D01*
X153900000Y-88670000D02*
X154773310Y-88670000D01*
X153094063Y-82169749D02*
X153535000Y-82610686D01*
X156400000Y-89380000D02*
X157836164Y-87943836D01*
X154773310Y-88670000D02*
X154970000Y-88473310D01*
X155190000Y-86970000D02*
X156140000Y-86970000D01*
X153680000Y-87079930D02*
X153680000Y-88450000D01*
X153820000Y-86939930D02*
X153680000Y-87079930D01*
X153820000Y-85931279D02*
X153820000Y-86939930D01*
X153923199Y-85828080D02*
X153820000Y-85931279D01*
X153680000Y-88450000D02*
X153900000Y-88670000D01*
X153923199Y-84333199D02*
X153923199Y-85828080D01*
X157836164Y-87943836D02*
X157836164Y-87905206D01*
X153535000Y-83945000D02*
X153923199Y-84333199D01*
X153535000Y-82610686D02*
X153535000Y-83945000D01*
X156140000Y-86970000D02*
X156270000Y-87100000D01*
X156270000Y-87100000D02*
X156270000Y-88314314D01*
X156270000Y-88314314D02*
X155810000Y-88774314D01*
X155810000Y-88774314D02*
X155810000Y-89260000D01*
X155810000Y-89260000D02*
X155930000Y-89380000D01*
X155930000Y-89380000D02*
X156400000Y-89380000D01*
%TO.N,R6*%
X153523199Y-85662394D02*
X153195593Y-85990000D01*
X153195593Y-85990000D02*
X152400000Y-85990000D01*
%TO.N,P18*%
X156410000Y-83760000D02*
X156410000Y-84010000D01*
X156410000Y-84010000D02*
X156080000Y-84340000D01*
X156080000Y-84340000D02*
X155530000Y-84340000D01*
X155530000Y-84340000D02*
X154850000Y-85020000D01*
X154850000Y-85020000D02*
X154850000Y-85558310D01*
X154850000Y-85558310D02*
X154578310Y-85830000D01*
X154578310Y-85830000D02*
X154578310Y-86648310D01*
X154578310Y-86648310D02*
X154080000Y-87146620D01*
X154080000Y-87146620D02*
X154080000Y-88270000D01*
%TO.N,P19*%
X156300000Y-82610000D02*
X156810000Y-83120000D01*
X154550003Y-87143307D02*
X154550003Y-88270000D01*
X156810000Y-83120000D02*
X156810000Y-84565000D01*
X156810000Y-84565000D02*
X155887500Y-85487500D01*
X155887500Y-85487500D02*
X155571570Y-85487500D01*
X155571570Y-85487500D02*
X154946655Y-86112415D01*
X154946655Y-86112415D02*
X154946655Y-86746655D01*
X154946655Y-86746655D02*
X154550003Y-87143307D01*
%TO.N,R7*%
X155493023Y-87490691D02*
X155493023Y-88416977D01*
X154910000Y-89000000D02*
X152870000Y-89000000D01*
X155493023Y-88416977D02*
X154910000Y-89000000D01*
X152870000Y-89000000D02*
X152400000Y-88530000D01*
%TO.N,BAT+*%
X154740000Y-101590000D02*
X159230000Y-101590000D01*
X154390000Y-101240000D02*
X154740000Y-101590000D01*
X160020000Y-100800000D02*
X160020000Y-99750000D01*
X154390000Y-100740000D02*
X154390000Y-101240000D01*
X159230000Y-101590000D02*
X160020000Y-100800000D01*
%TO.N,NFCL*%
X165000000Y-97286689D02*
X165259999Y-97026690D01*
X165259999Y-91426689D02*
X163870000Y-90036690D01*
X165000000Y-98985626D02*
X165000000Y-97286689D01*
X153635000Y-101365000D02*
X154190000Y-101920000D01*
X165259999Y-97026690D02*
X165259999Y-91426689D01*
X165319374Y-99305000D02*
X165000000Y-98985626D01*
X153635000Y-99295000D02*
X153635000Y-101365000D01*
X165811459Y-99305000D02*
X165319374Y-99305000D01*
X154400000Y-98530000D02*
X153635000Y-99295000D01*
X166690000Y-100183541D02*
X165811459Y-99305000D01*
X166690000Y-101336459D02*
X166690000Y-100183541D01*
X166106459Y-101920000D02*
X166690000Y-101336459D01*
X154190000Y-101920000D02*
X166106459Y-101920000D01*
X163870000Y-90036690D02*
X163870000Y-89900000D01*
%TO.N,NFCR*%
X165770000Y-89900000D02*
X165399999Y-90270001D01*
X165399999Y-90270001D02*
X165399999Y-91099999D01*
X165399999Y-91099999D02*
X165589999Y-91289999D01*
X165589999Y-97879999D02*
X165680000Y-97970000D01*
X165589999Y-91289999D02*
X165589999Y-97879999D01*
X165680000Y-97970000D02*
X165680000Y-98550000D01*
%TO.N,P5*%
X158790001Y-84084315D02*
X158737158Y-84137158D01*
X158737158Y-84137158D02*
X158602842Y-84137158D01*
X158602842Y-84137158D02*
X156974315Y-85765685D01*
X156974315Y-85765685D02*
X156974315Y-87609999D01*
%TO.N,P21*%
X158790000Y-85390000D02*
X157430000Y-86750000D01*
X157430000Y-86750000D02*
X157430000Y-87720000D01*
X157430000Y-87720000D02*
X156210000Y-88940000D01*
%TO.N,P5*%
X162577500Y-84905000D02*
X162640685Y-84968185D01*
X162640685Y-84968185D02*
X162640685Y-88270000D01*
%TO.N,P6*%
X162240685Y-86075000D02*
X162240685Y-88572157D01*
X162240685Y-88572157D02*
X162495000Y-88826472D01*
X162636690Y-91290000D02*
X164060244Y-91290000D01*
X162495000Y-88826472D02*
X162495000Y-91148310D01*
X164060244Y-91290000D02*
X164600000Y-91829756D01*
X162495000Y-91148310D02*
X162636690Y-91290000D01*
X164600000Y-91829756D02*
X164600000Y-96737524D01*
X164600000Y-96737524D02*
X163323762Y-98013762D01*
%TO.N,BAT-*%
X160935000Y-88615000D02*
X160190000Y-87870000D01*
X162160000Y-89893554D02*
X162165000Y-89888554D01*
X162165000Y-89888554D02*
X162165000Y-88991446D01*
X156263380Y-79750000D02*
X155971690Y-79750000D01*
X162165000Y-88991446D02*
X161788554Y-88615000D01*
X162160000Y-91280000D02*
X162160000Y-89893554D01*
X161788554Y-88615000D02*
X160935000Y-88615000D01*
X164270000Y-91966446D02*
X163923554Y-91620000D01*
X160190000Y-87870000D02*
X160190000Y-82451264D01*
X162500000Y-91620000D02*
X162160000Y-91280000D01*
X163923554Y-91620000D02*
X162500000Y-91620000D01*
X164270000Y-96501838D02*
X164270000Y-91966446D01*
X162520000Y-98251838D02*
X164270000Y-96501838D01*
X162520000Y-99750000D02*
X162520000Y-98251838D01*
X160190000Y-82451264D02*
X158238736Y-80500000D01*
X158238736Y-80500000D02*
X157013380Y-80500000D01*
X157013380Y-80500000D02*
X156263380Y-79750000D01*
X155971690Y-79750000D02*
X155611690Y-79390000D01*
X155611690Y-79390000D02*
X155160000Y-79390000D01*
X155160000Y-79390000D02*
X155010000Y-79240000D01*
X155010000Y-79240000D02*
X155010000Y-78650000D01*
%TO.N,P4*%
X166700000Y-92575686D02*
X166700000Y-89612325D01*
X166700000Y-89612325D02*
X165987675Y-88900000D01*
X164370000Y-88900000D02*
X163560000Y-88090000D01*
X165987675Y-88900000D02*
X164370000Y-88900000D01*
X163560000Y-88090000D02*
X163560000Y-83760000D01*
%TO.N,SCLK*%
X165799999Y-90930000D02*
X166300000Y-91430001D01*
X166300000Y-91430001D02*
X166300000Y-93300000D01*
X166300000Y-93300000D02*
X166610000Y-93610000D01*
%TO.N,RX*%
X153504623Y-76368937D02*
X153597196Y-76368937D01*
X155311767Y-75650000D02*
X156215686Y-75650000D01*
X157850000Y-78053554D02*
X158276446Y-78480000D01*
X153597196Y-76368937D02*
X154586132Y-75380001D01*
X160030001Y-79914314D02*
X161193491Y-81077804D01*
X154586132Y-75380001D02*
X155041768Y-75380001D01*
X157850000Y-77284314D02*
X157850000Y-78053554D01*
X155041768Y-75380001D02*
X155311767Y-75650000D01*
X156215686Y-75650000D02*
X157850000Y-77284314D01*
X158276446Y-78480000D02*
X159860001Y-78480000D01*
X159860001Y-78480000D02*
X160030001Y-78650000D01*
X160030001Y-78650000D02*
X160030001Y-79914314D01*
%TO.N,R18*%
X154813950Y-75930001D02*
X154899999Y-75930001D01*
X154899999Y-75930001D02*
X154950000Y-75880000D01*
%TO.N,P20*%
X159317211Y-81012789D02*
X159147935Y-80843513D01*
X159147935Y-80843513D02*
X159147935Y-80277827D01*
X159147935Y-80277827D02*
X157340000Y-78469892D01*
X157340000Y-78469892D02*
X157340000Y-78420000D01*
%TO.N,R18*%
X159680000Y-75870000D02*
X158800000Y-74990000D01*
X159770000Y-75870000D02*
X159680000Y-75870000D01*
%TO.N,P18*%
X167454365Y-89900000D02*
X165665051Y-88110686D01*
X165665051Y-88110686D02*
X165415000Y-88110686D01*
%TO.N,R8*%
X167640000Y-88530000D02*
X167640000Y-87950000D01*
X167640000Y-87950000D02*
X167380048Y-87690048D01*
X167380048Y-87690048D02*
X165560048Y-87690048D01*
X165560048Y-87690048D02*
X165050000Y-87180000D01*
%TO.N,P21*%
X156410000Y-79350000D02*
X156440000Y-79380000D01*
X156410000Y-76410000D02*
X156410000Y-79350000D01*
%TO.N,P4*%
X159625392Y-80470000D02*
X159547935Y-80547457D01*
X159712249Y-80470000D02*
X159625392Y-80470000D01*
%TO.N,RST*%
X158204889Y-79900467D02*
X156979533Y-79900467D01*
X158650054Y-80345632D02*
X158204889Y-79900467D01*
%TO.N,P4*%
X160020000Y-80470000D02*
X159712249Y-80470000D01*
X161820000Y-82270000D02*
X160020000Y-80470000D01*
%TO.N,TX*%
X161200001Y-80505608D02*
X160360000Y-79665607D01*
X160360000Y-79665607D02*
X160360000Y-74880000D01*
X160360000Y-74880000D02*
X160230000Y-74750000D01*
%TO.N,GND*%
X161999824Y-81023486D02*
X164130000Y-78893310D01*
X161999824Y-81031898D02*
X161999824Y-81023486D01*
X164130000Y-78893310D02*
X164130000Y-78750000D01*
%TO.N,P4*%
X162410000Y-82860000D02*
X161820000Y-82270000D01*
X162410000Y-83760000D02*
X162410000Y-82860000D01*
%TO.N,R3*%
X154660000Y-82590000D02*
X154830000Y-82590000D01*
X154010000Y-80960000D02*
X154010000Y-81940000D01*
X154010000Y-81940000D02*
X154660000Y-82590000D01*
%TO.N,R4*%
X154270000Y-82780000D02*
X152400000Y-80910000D01*
X154615000Y-83745000D02*
X154270000Y-83400000D01*
X154270000Y-83400000D02*
X154270000Y-82780000D01*
X154835000Y-83745000D02*
X154615000Y-83745000D01*
%TO.N,R5*%
X153240134Y-84264298D02*
X153214298Y-84264298D01*
X153214298Y-84264298D02*
X152400000Y-83450000D01*
%TO.N,5V*%
X163420000Y-76898994D02*
X163913995Y-76404999D01*
X163420000Y-78390000D02*
X163420000Y-76898994D01*
X161093894Y-79559580D02*
X162250420Y-79559580D01*
X162250420Y-79559580D02*
X163420000Y-78390000D01*
%TO.N,GND*%
X167219323Y-76921758D02*
X165461081Y-78680000D01*
X165461081Y-78680000D02*
X165140000Y-78680000D01*
%TO.N,R13*%
X167519997Y-75830000D02*
X167640000Y-75830000D01*
X165140000Y-78209997D02*
X167519997Y-75830000D01*
%TO.N,P21*%
X156410000Y-76410000D02*
X156410000Y-76460000D01*
%TO.N,R2*%
X154229999Y-77590761D02*
X154160761Y-77590761D01*
X154160761Y-77590761D02*
X152400000Y-75830000D01*
%TO.N,P20*%
X165980000Y-85110969D02*
X166199031Y-85330000D01*
X166199031Y-85330000D02*
X166744365Y-85330000D01*
X166744365Y-85330000D02*
X167254368Y-84819997D01*
X167254368Y-84819997D02*
X167640000Y-84819997D01*
%TO.N,R10*%
X167640000Y-83450000D02*
X166630000Y-83450000D01*
X166630000Y-83450000D02*
X165170000Y-84910000D01*
%TO.N,P19*%
X165960000Y-86390000D02*
X166930048Y-87360048D01*
X166930048Y-87360048D02*
X167650833Y-87360048D01*
%TO.N,3V*%
X166783864Y-81846136D02*
X165601685Y-83028315D01*
X165601685Y-83028315D02*
X165135838Y-83028315D01*
%TO.N,R9*%
X165050000Y-86060000D02*
X165120000Y-85990000D01*
X165120000Y-85990000D02*
X167640000Y-85990000D01*
%TO.N,R11*%
X167640000Y-80910000D02*
X167640000Y-81710000D01*
X167640000Y-81710000D02*
X165570000Y-83780000D01*
X165570000Y-83780000D02*
X165170000Y-83780000D01*
D23*
%TO.N,BAT-*%
X165670000Y-100760000D02*
X163530000Y-100760000D01*
X163530000Y-100760000D02*
X162520000Y-99750000D01*
D22*
%TO.N,R1*%
X152564156Y-74448429D02*
X152564156Y-74431450D01*
X152564156Y-74431450D02*
X152400000Y-74267294D01*
X152400000Y-74267294D02*
X152400000Y-73290000D01*
%TO.N,R18*%
X163120000Y-92370000D02*
X163520000Y-92370000D01*
%TO.N,SWDIO*%
X157827766Y-74177553D02*
X158800000Y-73205319D01*
X158800000Y-73205319D02*
X158800000Y-72450000D01*
%TO.N,R12*%
X165420000Y-82390000D02*
X165240000Y-82570000D01*
X165420000Y-81680000D02*
X165420000Y-82390000D01*
X167640000Y-78370000D02*
X165420000Y-80590000D01*
X165420000Y-80590000D02*
X165420000Y-81680000D01*
%TO.N,R15*%
X164260000Y-73710000D02*
X162700000Y-73710000D01*
X162700000Y-73710000D02*
X161420000Y-74990000D01*
X161420000Y-74990000D02*
X161340000Y-74990000D01*
%TO.N,SWCLK*%
X162050000Y-72440000D02*
X162750000Y-73140000D01*
X161280000Y-72440000D02*
X162050000Y-72440000D01*
%TO.N,R15*%
X163120000Y-96070000D02*
X156920000Y-96070000D01*
%TO.N,R18*%
X156920000Y-92370000D02*
X163120000Y-92370000D01*
%TO.N,GND*%
X153500000Y-77844346D02*
X153058670Y-77403016D01*
X153500000Y-78970000D02*
X153500000Y-77844346D01*
X154042591Y-79528901D02*
X154042591Y-79512591D01*
X154042591Y-79512591D02*
X153500000Y-78970000D01*
%TD*%
M02*
