%TF.GenerationSoftware,KiCad,Pcbnew,8.0.3+1*%
%TF.CreationDate,2024-06-27T20:46:51-04:00*%
%TF.ProjectId,XIAO_REV,5849414f-5f52-4455-962e-6b696361645f,rev?*%
%TF.SameCoordinates,Original*%
%TF.FileFunction,Drillmap*%
%TF.FilePolarity,Positive*%
%FSLAX45Y45*%
G04 Gerber Fmt 4.5, Leading zero omitted, Abs format (unit mm)*
G04 Created by KiCad (PCBNEW 8.0.3+1) date 2024-06-27 20:46:51*
%MOMM*%
%LPD*%
G01*
G04 APERTURE LIST*
%ADD10C,0.050000*%
%ADD11C,0.200000*%
G04 APERTURE END LIST*
D10*
X16764000Y-10250500D02*
X15240000Y-10250500D01*
X16854156Y-10032844D02*
X16854156Y-9959156D01*
X16854156Y-9778844D02*
X16854156Y-9705156D01*
X16854156Y-9524844D02*
X16854156Y-9451156D01*
X16854156Y-9270844D02*
X16854156Y-9197156D01*
X16854156Y-9016844D02*
X16854156Y-8943156D01*
X16854156Y-8762844D02*
X16854156Y-8689156D01*
X16854156Y-8508844D02*
X16854156Y-8435156D01*
X16854156Y-8254844D02*
X16854156Y-8182156D01*
X16854156Y-8001844D02*
X16854156Y-7927156D01*
X16854156Y-7746844D02*
X16854156Y-7674156D01*
X16854156Y-7493844D02*
X16854156Y-7419156D01*
X15149844Y-7746844D02*
X15149844Y-7673156D01*
X15149844Y-8000844D02*
X15149844Y-7927156D01*
X15149844Y-8254844D02*
X15149844Y-8181156D01*
X15149844Y-8508844D02*
X15149844Y-8435156D01*
X15149844Y-8762844D02*
X15149844Y-8689156D01*
X15149844Y-9016844D02*
X15149844Y-8943156D01*
X15149844Y-9270844D02*
X15149844Y-9197156D01*
X15149844Y-9524844D02*
X15149844Y-9451156D01*
X15149844Y-9778844D02*
X15149844Y-9705156D01*
X15149844Y-10032844D02*
X15149844Y-9959156D01*
X16854156Y-10032844D02*
G75*
G02*
X16764000Y-10250500I-90156J-90156D01*
G01*
X15240000Y-10250500D02*
G75*
G02*
X15149844Y-10032844I0J127500D01*
G01*
X16764000Y-7201500D02*
G75*
G02*
X16854156Y-7419156I0J-127500D01*
G01*
X15149844Y-7419156D02*
G75*
G02*
X15240000Y-7201500I90156J90156D01*
G01*
X15149844Y-7492844D02*
X15149844Y-7419156D01*
X15747000Y-7201500D02*
G75*
G02*
X15874500Y-7074000I127500J0D01*
G01*
X16039344Y-7111344D02*
G75*
G02*
X16257000Y-7201500I90156J-90156D01*
G01*
X15964656Y-7111344D02*
X16039344Y-7111344D01*
X15149844Y-9959156D02*
G75*
G02*
X15112500Y-9869000I90156J90156D01*
G01*
X15112500Y-9869000D02*
G75*
G02*
X15149844Y-9778844I127500J0D01*
G01*
X15149844Y-9705156D02*
G75*
G02*
X15112500Y-9615000I90156J90156D01*
G01*
X15112500Y-9615000D02*
G75*
G02*
X15149844Y-9524844I127500J0D01*
G01*
X15149844Y-9451156D02*
G75*
G02*
X15112500Y-9361000I90156J90156D01*
G01*
X15112500Y-9361000D02*
G75*
G02*
X15149844Y-9270844I127500J0D01*
G01*
X15149844Y-9197156D02*
G75*
G02*
X15112500Y-9107000I90156J90156D01*
G01*
X15112500Y-9107000D02*
G75*
G02*
X15149844Y-9016844I127500J0D01*
G01*
X15149844Y-8943156D02*
G75*
G02*
X15112500Y-8853000I90156J90156D01*
G01*
X15112500Y-8853000D02*
G75*
G02*
X15149844Y-8762844I127500J0D01*
G01*
X15149844Y-8689156D02*
G75*
G02*
X15112500Y-8599000I90156J90156D01*
G01*
X15112500Y-8599000D02*
G75*
G02*
X15149844Y-8508844I127500J0D01*
G01*
X15149844Y-8435156D02*
G75*
G02*
X15112500Y-8345000I90156J90156D01*
G01*
X15112500Y-8345000D02*
G75*
G02*
X15149844Y-8254844I127500J0D01*
G01*
X15149844Y-8181156D02*
G75*
G02*
X15112500Y-8091000I90156J90156D01*
G01*
X15112500Y-8091000D02*
G75*
G02*
X15149844Y-8000844I127500J0D01*
G01*
X15149844Y-7927156D02*
G75*
G02*
X15112500Y-7837000I90156J90156D01*
G01*
X15112500Y-7837000D02*
G75*
G02*
X15149844Y-7746844I127500J0D01*
G01*
X15149844Y-7673156D02*
G75*
G02*
X15112500Y-7583000I90156J90156D01*
G01*
X15112500Y-7583000D02*
G75*
G02*
X15149844Y-7492844I127500J0D01*
G01*
X15874500Y-7074000D02*
G75*
G02*
X15964656Y-7111344I0J-127501D01*
G01*
X16854156Y-7493844D02*
G75*
G02*
X16891500Y-7584000I-90157J-90156D01*
G01*
X16891500Y-7584000D02*
G75*
G02*
X16854156Y-7674156I-127501J0D01*
G01*
X16854156Y-7746844D02*
G75*
G02*
X16891500Y-7837000I-90157J-90156D01*
G01*
X16891500Y-7837000D02*
G75*
G02*
X16854156Y-7927156I-127501J0D01*
G01*
X16854156Y-8001844D02*
G75*
G02*
X16891500Y-8092000I-90157J-90156D01*
G01*
X16891500Y-8092000D02*
G75*
G02*
X16854156Y-8182156I-127501J0D01*
G01*
X16854156Y-8254844D02*
G75*
G02*
X16891500Y-8345000I-90157J-90156D01*
G01*
X16891500Y-8345000D02*
G75*
G02*
X16854156Y-8435156I-127501J0D01*
G01*
X16854156Y-8508844D02*
G75*
G02*
X16891500Y-8599000I-90157J-90156D01*
G01*
X16891500Y-8599000D02*
G75*
G02*
X16854156Y-8689156I-127501J0D01*
G01*
X16854156Y-8762844D02*
G75*
G02*
X16891500Y-8853000I-90157J-90156D01*
G01*
X16891500Y-8853000D02*
G75*
G02*
X16854156Y-8943156I-127501J0D01*
G01*
X16854156Y-9016844D02*
G75*
G02*
X16891500Y-9107000I-90157J-90156D01*
G01*
X16891500Y-9107000D02*
G75*
G02*
X16854156Y-9197156I-127501J0D01*
G01*
X16854156Y-9270844D02*
G75*
G02*
X16891500Y-9361000I-90157J-90156D01*
G01*
X16891500Y-9361000D02*
G75*
G02*
X16854156Y-9451156I-127501J0D01*
G01*
X16854156Y-9524844D02*
G75*
G02*
X16891500Y-9615000I-90157J-90156D01*
G01*
X16891500Y-9615000D02*
G75*
G02*
X16854156Y-9705156I-127501J0D01*
G01*
X16891500Y-9869000D02*
G75*
G02*
X16854156Y-9959156I-127501J0D01*
G01*
X16854156Y-9778844D02*
G75*
G02*
X16891500Y-9869000I-90156J-90156D01*
G01*
X16257000Y-7201500D02*
X16764000Y-7201500D01*
X15747000Y-7201500D02*
X15240000Y-7201500D01*
D11*
X15370777Y-10564484D02*
X15370777Y-10364484D01*
X15370777Y-10364484D02*
X15418396Y-10364484D01*
X15418396Y-10364484D02*
X15446967Y-10374008D01*
X15446967Y-10374008D02*
X15466015Y-10393055D01*
X15466015Y-10393055D02*
X15475539Y-10412103D01*
X15475539Y-10412103D02*
X15485062Y-10450198D01*
X15485062Y-10450198D02*
X15485062Y-10478770D01*
X15485062Y-10478770D02*
X15475539Y-10516865D01*
X15475539Y-10516865D02*
X15466015Y-10535912D01*
X15466015Y-10535912D02*
X15446967Y-10554960D01*
X15446967Y-10554960D02*
X15418396Y-10564484D01*
X15418396Y-10564484D02*
X15370777Y-10564484D01*
X15570777Y-10564484D02*
X15570777Y-10431150D01*
X15570777Y-10469246D02*
X15580301Y-10450198D01*
X15580301Y-10450198D02*
X15589824Y-10440674D01*
X15589824Y-10440674D02*
X15608872Y-10431150D01*
X15608872Y-10431150D02*
X15627920Y-10431150D01*
X15694586Y-10564484D02*
X15694586Y-10431150D01*
X15694586Y-10364484D02*
X15685062Y-10374008D01*
X15685062Y-10374008D02*
X15694586Y-10383531D01*
X15694586Y-10383531D02*
X15704110Y-10374008D01*
X15704110Y-10374008D02*
X15694586Y-10364484D01*
X15694586Y-10364484D02*
X15694586Y-10383531D01*
X15818396Y-10564484D02*
X15799348Y-10554960D01*
X15799348Y-10554960D02*
X15789824Y-10535912D01*
X15789824Y-10535912D02*
X15789824Y-10364484D01*
X15923158Y-10564484D02*
X15904110Y-10554960D01*
X15904110Y-10554960D02*
X15894586Y-10535912D01*
X15894586Y-10535912D02*
X15894586Y-10364484D01*
X16151729Y-10564484D02*
X16151729Y-10364484D01*
X16151729Y-10364484D02*
X16218396Y-10507341D01*
X16218396Y-10507341D02*
X16285062Y-10364484D01*
X16285062Y-10364484D02*
X16285062Y-10564484D01*
X16466015Y-10564484D02*
X16466015Y-10459722D01*
X16466015Y-10459722D02*
X16456491Y-10440674D01*
X16456491Y-10440674D02*
X16437443Y-10431150D01*
X16437443Y-10431150D02*
X16399348Y-10431150D01*
X16399348Y-10431150D02*
X16380301Y-10440674D01*
X16466015Y-10554960D02*
X16446967Y-10564484D01*
X16446967Y-10564484D02*
X16399348Y-10564484D01*
X16399348Y-10564484D02*
X16380301Y-10554960D01*
X16380301Y-10554960D02*
X16370777Y-10535912D01*
X16370777Y-10535912D02*
X16370777Y-10516865D01*
X16370777Y-10516865D02*
X16380301Y-10497817D01*
X16380301Y-10497817D02*
X16399348Y-10488293D01*
X16399348Y-10488293D02*
X16446967Y-10488293D01*
X16446967Y-10488293D02*
X16466015Y-10478770D01*
X16561253Y-10431150D02*
X16561253Y-10631150D01*
X16561253Y-10440674D02*
X16580301Y-10431150D01*
X16580301Y-10431150D02*
X16618396Y-10431150D01*
X16618396Y-10431150D02*
X16637443Y-10440674D01*
X16637443Y-10440674D02*
X16646967Y-10450198D01*
X16646967Y-10450198D02*
X16656491Y-10469246D01*
X16656491Y-10469246D02*
X16656491Y-10526389D01*
X16656491Y-10526389D02*
X16646967Y-10545436D01*
X16646967Y-10545436D02*
X16637443Y-10554960D01*
X16637443Y-10554960D02*
X16618396Y-10564484D01*
X16618396Y-10564484D02*
X16580301Y-10564484D01*
X16580301Y-10564484D02*
X16561253Y-10554960D01*
X16742205Y-10545436D02*
X16751729Y-10554960D01*
X16751729Y-10554960D02*
X16742205Y-10564484D01*
X16742205Y-10564484D02*
X16732682Y-10554960D01*
X16732682Y-10554960D02*
X16742205Y-10545436D01*
X16742205Y-10545436D02*
X16742205Y-10564484D01*
X16742205Y-10440674D02*
X16751729Y-10450198D01*
X16751729Y-10450198D02*
X16742205Y-10459722D01*
X16742205Y-10459722D02*
X16732682Y-10450198D01*
X16732682Y-10450198D02*
X16742205Y-10440674D01*
X16742205Y-10440674D02*
X16742205Y-10459722D01*
M02*
