M48
; DRILL file {KiCad 8.0.3+1} date 2024-06-27T20:46:50-0400
; FORMAT={-:-/ absolute / inch / decimal}
; #@! TF.CreationDate,2024-06-27T20:46:50-04:00
; #@! TF.GenerationSoftware,Kicad,Pcbnew,8.0.3+1
; #@! TF.FileFunction,Plated,1,2,PTH
FMAT,2
INCH
; #@! TA.AperFunction,Plated,PTH,ViaDrill
T1C0.0039
; #@! TA.AperFunction,Plated,PTH,ViaDrill
T2C0.0118
%
G90
G05
T1
X6.0065Y-2.931
X6.0259Y-3.0474
X6.0273Y-3.235
X6.0331Y-3.3175
X6.0406Y-3.5524
X6.0435Y-3.0067
X6.0442Y-3.3725
X6.0546Y-3.5221
X6.0647Y-3.1311
X6.0661Y-3.4752
X6.072Y-3.0548
X6.0846Y-3.4752
X6.0957Y-3.2516
X6.0959Y-3.297
X6.1218Y-3.4445
X6.139Y-3.1555
X6.1413Y-3.388
X6.15Y-3.5016
X6.1535Y-3.2524
X6.1579Y-3.0083
X6.1579Y-3.2976
X6.1591Y-3.1252
X6.1769Y-3.211
X6.1801Y-3.4492
X6.1803Y-3.1457
X6.1945Y-3.0874
X6.214Y-3.4608
X6.2461Y-3.1632
X6.2516Y-3.3618
X6.2516Y-3.3104
X6.2723Y-3.1895
X6.2814Y-3.1712
X6.3083Y-2.9429
X6.3423Y-3.1323
X6.3462Y-3.192
X6.3465Y-3.1695
X6.3779Y-3.1902
X6.3874Y-3.3888
X6.3941Y-3.2976
X6.4007Y-3.3427
X6.4032Y-3.4752
X6.4301Y-3.8588
X6.4394Y-3.2976
X6.4533Y-3.0081
X6.4618Y-3.1004
X6.498Y-3.3882
X6.498Y-3.4323
X6.5014Y-3.2688
X6.5016Y-3.0791
X6.5016Y-3.0976
X6.5028Y-3.2984
X6.5028Y-3.3429
X6.5055Y-3.2508
X6.5124Y-3.4689
X6.5276Y-3.5799
X6.5339Y-3.4012
X6.5346Y-3.3508
X6.5358Y-2.9911
X6.5594Y-3.6854
X6.563Y-3.6447
X6.5663Y-3.2223
X6.5834Y-3.0284
X6.5927Y-3.5394
X6.6Y-3.3394
X6.6004Y-3.4394
T2
X6.095Y-2.9894
X6.1021Y-2.9186
X6.1378Y-2.9122
X6.2137Y-2.9204
X6.2902Y-2.987
X6.4075Y-2.8795
X6.4669Y-2.902
X6.5069Y-2.9462
X6.5181Y-2.9743
M30
