%TF.GenerationSoftware,KiCad,Pcbnew,8.0.3+1*%
%TF.CreationDate,2024-06-27T20:46:53-04:00*%
%TF.ProjectId,XIAO_REV,5849414f-5f52-4455-962e-6b696361645f,rev?*%
%TF.SameCoordinates,Original*%
%TF.FileFunction,Soldermask,Bot*%
%TF.FilePolarity,Negative*%
%FSLAX46Y46*%
G04 Gerber Fmt 4.6, Leading zero omitted, Abs format (unit mm)*
G04 Created by KiCad (PCBNEW 8.0.3+1) date 2024-06-27 20:46:53*
%MOMM*%
%LPD*%
G01*
G04 APERTURE LIST*
G04 Aperture macros list*
%AMOutline5P*
0 Free polygon, 5 corners , with rotation*
0 The origin of the aperture is its center*
0 number of corners: always 5*
0 $1 to $10 corner X, Y*
0 $11 Rotation angle, in degrees counterclockwise*
0 create outline with 5 corners*
4,1,5,$1,$2,$3,$4,$5,$6,$7,$8,$9,$10,$1,$2,$11*%
%AMOutline6P*
0 Free polygon, 6 corners , with rotation*
0 The origin of the aperture is its center*
0 number of corners: always 6*
0 $1 to $12 corner X, Y*
0 $13 Rotation angle, in degrees counterclockwise*
0 create outline with 6 corners*
4,1,6,$1,$2,$3,$4,$5,$6,$7,$8,$9,$10,$11,$12,$1,$2,$13*%
%AMOutline7P*
0 Free polygon, 7 corners , with rotation*
0 The origin of the aperture is its center*
0 number of corners: always 7*
0 $1 to $14 corner X, Y*
0 $15 Rotation angle, in degrees counterclockwise*
0 create outline with 7 corners*
4,1,7,$1,$2,$3,$4,$5,$6,$7,$8,$9,$10,$11,$12,$13,$14,$1,$2,$15*%
%AMOutline8P*
0 Free polygon, 8 corners , with rotation*
0 The origin of the aperture is its center*
0 number of corners: always 8*
0 $1 to $16 corner X, Y*
0 $17 Rotation angle, in degrees counterclockwise*
0 create outline with 8 corners*
4,1,8,$1,$2,$3,$4,$5,$6,$7,$8,$9,$10,$11,$12,$13,$14,$15,$16,$1,$2,$17*%
G04 Aperture macros list end*
%ADD10Outline8P,-0.150000X0.140000X-0.090000X0.200000X0.090000X0.200000X0.150000X0.140000X0.150000X-0.140000X0.090000X-0.200000X-0.090000X-0.200000X-0.150000X-0.140000X0.000000*%
%ADD11Outline8P,-0.250000X0.150000X-0.150000X0.250000X0.150000X0.250000X0.250000X0.150000X0.250000X-0.150000X0.150000X-0.250000X-0.150000X-0.250000X-0.250000X-0.150000X135.000000*%
%ADD12Outline8P,-0.150000X0.140000X-0.090000X0.200000X0.090000X0.200000X0.150000X0.140000X0.150000X-0.140000X0.090000X-0.200000X-0.090000X-0.200000X-0.150000X-0.140000X270.000000*%
%ADD13O,1.700000X1.700000*%
G04 APERTURE END LIST*
D10*
%TO.C,*%
X167840000Y-79380000D03*
%TD*%
%TO.C,*%
X167840000Y-79930000D03*
%TD*%
%TO.C,*%
X152200000Y-79375000D03*
%TD*%
%TO.C,*%
X152200000Y-79925000D03*
%TD*%
%TO.C,*%
X159780000Y-79035000D03*
%TD*%
%TO.C,*%
X159780000Y-79585000D03*
%TD*%
D11*
%TO.C,*%
X154490000Y-74680000D03*
%TD*%
%TO.C,*%
X166020000Y-74830000D03*
%TD*%
%TO.C,*%
X164560000Y-75090000D03*
%TD*%
%TO.C,*%
X155450000Y-75090000D03*
%TD*%
%TO.C,*%
X163303948Y-75086052D03*
%TD*%
%TO.C,*%
X156736052Y-75086052D03*
%TD*%
D12*
%TO.C,*%
X164090000Y-84910000D03*
%TD*%
%TO.C,*%
X155400000Y-86060000D03*
%TD*%
%TO.C,*%
X158900000Y-82610000D03*
%TD*%
%TO.C,*%
X155400000Y-87210000D03*
%TD*%
%TO.C,*%
X158900000Y-78810000D03*
%TD*%
%TO.C,*%
X155400000Y-76410000D03*
%TD*%
%TO.C,*%
X155950000Y-87210000D03*
%TD*%
%TO.C,*%
X158350000Y-82610000D03*
%TD*%
%TO.C,*%
X158350000Y-86060000D03*
%TD*%
%TO.C,*%
X155950000Y-83760000D03*
%TD*%
%TO.C,*%
X164640000Y-76410000D03*
%TD*%
%TO.C,*%
X161140000Y-87210000D03*
%TD*%
%TO.C,*%
X161140000Y-78810000D03*
%TD*%
%TO.C,*%
X161690000Y-78810000D03*
%TD*%
%TO.C,*%
X155400000Y-82610000D03*
%TD*%
%TO.C,*%
X164640000Y-87210000D03*
%TD*%
%TO.C,*%
X158900000Y-76160000D03*
%TD*%
%TO.C,*%
X161140000Y-86060000D03*
%TD*%
%TO.C,*%
X155950000Y-86060000D03*
%TD*%
%TO.C,*%
X155400000Y-77560000D03*
%TD*%
%TO.C,*%
X163910000Y-78280000D03*
%TD*%
%TO.C,*%
X161690000Y-82610000D03*
%TD*%
%TO.C,*%
X164090000Y-76410000D03*
%TD*%
%TO.C,*%
X155950000Y-77560000D03*
%TD*%
%TO.C,*%
X164640000Y-84910000D03*
%TD*%
%TO.C,*%
X161690000Y-86060000D03*
%TD*%
%TO.C,*%
X155950000Y-84910000D03*
%TD*%
%TO.C,*%
X158350000Y-78810000D03*
%TD*%
%TO.C,*%
X158900000Y-84910000D03*
%TD*%
%TO.C,*%
X158900000Y-86060000D03*
%TD*%
%TO.C,*%
X164090000Y-82610000D03*
%TD*%
%TO.C,*%
X158350000Y-84910000D03*
%TD*%
%TO.C,*%
X164640000Y-83760000D03*
%TD*%
%TO.C,*%
X161140000Y-83760000D03*
%TD*%
%TO.C,*%
X161690000Y-76160000D03*
%TD*%
%TO.C,*%
X161690000Y-87210000D03*
%TD*%
%TO.C,*%
X155950000Y-82610000D03*
%TD*%
%TO.C,*%
X158900000Y-83760000D03*
%TD*%
%TO.C,*%
X161140000Y-84910000D03*
%TD*%
%TO.C,*%
X158350000Y-83760000D03*
%TD*%
%TO.C,*%
X164090000Y-83760000D03*
%TD*%
%TO.C,*%
X164090000Y-87210000D03*
%TD*%
%TO.C,*%
X161140000Y-82610000D03*
%TD*%
%TO.C,*%
X161690000Y-84910000D03*
%TD*%
%TO.C,*%
X158900000Y-87210000D03*
%TD*%
%TO.C,*%
X164090000Y-86060000D03*
%TD*%
%TO.C,*%
X164640000Y-82610000D03*
%TD*%
%TO.C,*%
X155400000Y-83760000D03*
%TD*%
%TO.C,*%
X164460000Y-78280000D03*
%TD*%
%TO.C,*%
X158350000Y-76160000D03*
%TD*%
%TO.C,*%
X161140000Y-76160000D03*
%TD*%
%TO.C,*%
X155400000Y-84910000D03*
%TD*%
%TO.C,*%
X155950000Y-76410000D03*
%TD*%
%TO.C,*%
X161690000Y-83760000D03*
%TD*%
%TO.C,*%
X164640000Y-86060000D03*
%TD*%
%TO.C,*%
X158350000Y-87210000D03*
%TD*%
D13*
%TO.C,*%
X152400000Y-91070000D03*
%TD*%
%TO.C,*%
X167640000Y-80910000D03*
%TD*%
%TO.C,*%
X152400000Y-80910000D03*
%TD*%
%TO.C,*%
X167640000Y-93610000D03*
%TD*%
%TO.C,*%
X152400000Y-83450000D03*
%TD*%
%TO.C,*%
X152400000Y-96150000D03*
%TD*%
%TO.C,*%
X167640000Y-75830000D03*
%TD*%
%TO.C,*%
X152400000Y-101230000D03*
%TD*%
%TO.C,*%
X152400000Y-93610000D03*
%TD*%
%TO.C,*%
X167640000Y-85990000D03*
%TD*%
%TO.C,*%
X152400000Y-78370000D03*
%TD*%
%TO.C,*%
X167640000Y-98690000D03*
%TD*%
%TO.C,*%
X152400000Y-75830000D03*
%TD*%
%TO.C,*%
X152400000Y-85990000D03*
%TD*%
%TO.C,*%
X152400000Y-73290000D03*
%TD*%
%TO.C,*%
X167640000Y-101230000D03*
%TD*%
%TO.C,*%
X167640000Y-73290000D03*
%TD*%
%TO.C,*%
X167640000Y-83450000D03*
%TD*%
%TO.C,*%
X152400000Y-98690000D03*
%TD*%
%TO.C,*%
X167640000Y-78370000D03*
%TD*%
%TO.C,*%
X167640000Y-96150000D03*
%TD*%
%TO.C,*%
X152400000Y-88530000D03*
%TD*%
%TO.C,*%
X167640000Y-88530000D03*
%TD*%
%TO.C,*%
X167640000Y-91070000D03*
%TD*%
D12*
%TO.C,*%
X155150000Y-81500000D03*
%TD*%
%TO.C,*%
X154600000Y-81500000D03*
%TD*%
M02*
