%TF.GenerationSoftware,KiCad,Pcbnew,8.0.3+1*%
%TF.CreationDate,2024-06-27T20:46:53-04:00*%
%TF.ProjectId,XIAO_REV,5849414f-5f52-4455-962e-6b696361645f,rev?*%
%TF.SameCoordinates,Original*%
%TF.FileFunction,Profile,NP*%
%FSLAX46Y46*%
G04 Gerber Fmt 4.6, Leading zero omitted, Abs format (unit mm)*
G04 Created by KiCad (PCBNEW 8.0.3+1) date 2024-06-27 20:46:53*
%MOMM*%
%LPD*%
G01*
G04 APERTURE LIST*
%TA.AperFunction,Profile*%
%ADD10C,0.050000*%
%TD*%
G04 APERTURE END LIST*
D10*
X167640000Y-102505000D02*
X152399999Y-102505000D01*
X168541561Y-100328439D02*
X168541561Y-99591561D01*
X168541561Y-97788439D02*
X168541561Y-97051561D01*
X168541561Y-95248439D02*
X168541561Y-94511561D01*
X168541561Y-92708439D02*
X168541561Y-91971561D01*
X168541561Y-90168439D02*
X168541561Y-89431561D01*
X168541561Y-87628439D02*
X168541561Y-86891561D01*
X168541561Y-85088439D02*
X168541561Y-84351561D01*
X168541561Y-82548439D02*
X168541561Y-81821561D01*
X168541561Y-80018439D02*
X168541561Y-79271561D01*
X168541561Y-77468439D02*
X168541561Y-76741561D01*
X168541561Y-74938439D02*
X168541561Y-74191560D01*
X151498439Y-77468439D02*
X151498439Y-76731561D01*
X151498439Y-80008439D02*
X151498439Y-79271561D01*
X151498439Y-82548439D02*
X151498439Y-81811561D01*
X151498439Y-85088439D02*
X151498439Y-84351561D01*
X151498439Y-87628439D02*
X151498439Y-86891561D01*
X151498439Y-90168439D02*
X151498439Y-89431561D01*
X151498439Y-92708439D02*
X151498439Y-91971561D01*
X151498439Y-95248439D02*
X151498439Y-94511561D01*
X151498439Y-97788439D02*
X151498439Y-97051561D01*
X151498439Y-100328439D02*
X151498439Y-99591561D01*
X168541560Y-100328441D02*
G75*
G02*
X167640000Y-102504999I-901560J-901560D01*
G01*
X152399999Y-102504998D02*
G75*
G02*
X151498439Y-100328439I0J1274999D01*
G01*
X167640000Y-72015000D02*
G75*
G02*
X168541560Y-74191559I0J-1274999D01*
G01*
X151498440Y-74191559D02*
G75*
G02*
X152400000Y-72015001I901560J901560D01*
G01*
X151498439Y-74928439D02*
X151498439Y-74191561D01*
X157470000Y-72015000D02*
G75*
G02*
X158745000Y-70740000I1275000J0D01*
G01*
X160393439Y-71113439D02*
G75*
G02*
X162569997Y-72014999I901560J-901560D01*
G01*
X159646561Y-71113439D02*
X160393439Y-71113439D01*
X151498439Y-99591561D02*
G75*
G02*
X151125000Y-98690000I901561J901561D01*
G01*
X151125000Y-98690000D02*
G75*
G02*
X151498439Y-97788439I1275000J0D01*
G01*
X151498439Y-97051561D02*
G75*
G02*
X151125000Y-96150000I901561J901561D01*
G01*
X151125000Y-96150000D02*
G75*
G02*
X151498439Y-95248439I1275000J0D01*
G01*
X151498439Y-94511561D02*
G75*
G02*
X151125000Y-93610000I901561J901561D01*
G01*
X151125000Y-93610000D02*
G75*
G02*
X151498439Y-92708439I1275000J0D01*
G01*
X151498439Y-91971561D02*
G75*
G02*
X151125000Y-91070000I901561J901561D01*
G01*
X151125000Y-91070000D02*
G75*
G02*
X151498439Y-90168439I1275000J0D01*
G01*
X151498439Y-89431561D02*
G75*
G02*
X151125000Y-88530000I901561J901561D01*
G01*
X151125000Y-88530000D02*
G75*
G02*
X151498439Y-87628439I1275000J0D01*
G01*
X151498439Y-86891561D02*
G75*
G02*
X151125000Y-85990000I901561J901561D01*
G01*
X151125000Y-85990000D02*
G75*
G02*
X151498439Y-85088439I1275000J0D01*
G01*
X151498439Y-84351561D02*
G75*
G02*
X151125000Y-83450000I901561J901561D01*
G01*
X151125000Y-83450000D02*
G75*
G02*
X151498439Y-82548439I1275000J0D01*
G01*
X151498439Y-81811561D02*
G75*
G02*
X151125000Y-80910000I901561J901561D01*
G01*
X151125000Y-80910000D02*
G75*
G02*
X151498439Y-80008439I1275000J0D01*
G01*
X151498439Y-79271561D02*
G75*
G02*
X151125000Y-78370000I901561J901561D01*
G01*
X151125000Y-78370000D02*
G75*
G02*
X151498439Y-77468439I1275000J0D01*
G01*
X151498439Y-76731561D02*
G75*
G02*
X151125000Y-75830000I901561J901561D01*
G01*
X151125000Y-75830000D02*
G75*
G02*
X151498439Y-74928439I1275000J0D01*
G01*
X158745000Y-70740000D02*
G75*
G02*
X159646561Y-71113439I-2J-1275005D01*
G01*
X168541561Y-74938439D02*
G75*
G02*
X168915000Y-75840000I-901566J-901563D01*
G01*
X168915000Y-75840000D02*
G75*
G02*
X168541561Y-76741561I-1275005J2D01*
G01*
X168541561Y-77468439D02*
G75*
G02*
X168915000Y-78370000I-901566J-901563D01*
G01*
X168915000Y-78370000D02*
G75*
G02*
X168541561Y-79271561I-1275005J2D01*
G01*
X168541561Y-80018439D02*
G75*
G02*
X168915000Y-80920000I-901566J-901563D01*
G01*
X168915000Y-80920000D02*
G75*
G02*
X168541561Y-81821561I-1275005J2D01*
G01*
X168541561Y-82548439D02*
G75*
G02*
X168915000Y-83450000I-901566J-901563D01*
G01*
X168915000Y-83450000D02*
G75*
G02*
X168541561Y-84351561I-1275005J2D01*
G01*
X168541561Y-85088439D02*
G75*
G02*
X168915000Y-85990000I-901566J-901563D01*
G01*
X168915000Y-85990000D02*
G75*
G02*
X168541561Y-86891561I-1275005J2D01*
G01*
X168541561Y-87628439D02*
G75*
G02*
X168915000Y-88530000I-901566J-901563D01*
G01*
X168915000Y-88530000D02*
G75*
G02*
X168541561Y-89431561I-1275005J2D01*
G01*
X168541561Y-90168439D02*
G75*
G02*
X168915000Y-91070000I-901566J-901563D01*
G01*
X168915000Y-91070000D02*
G75*
G02*
X168541561Y-91971561I-1275005J2D01*
G01*
X168541561Y-92708439D02*
G75*
G02*
X168915000Y-93610000I-901566J-901563D01*
G01*
X168915000Y-93610000D02*
G75*
G02*
X168541561Y-94511561I-1275005J2D01*
G01*
X168541561Y-95248439D02*
G75*
G02*
X168915000Y-96150000I-901566J-901563D01*
G01*
X168915000Y-96150000D02*
G75*
G02*
X168541561Y-97051561I-1275005J2D01*
G01*
X168915000Y-98690000D02*
G75*
G02*
X168541561Y-99591561I-1275005J2D01*
G01*
X168541561Y-97788439D02*
G75*
G02*
X168915000Y-98690000I-901561J-901561D01*
G01*
X162570000Y-72015000D02*
X167640000Y-72015000D01*
X157470000Y-72015000D02*
X152400000Y-72015000D01*
M02*
