%TF.GenerationSoftware,KiCad,Pcbnew,8.0.3+1*%
%TF.CreationDate,2024-06-27T20:46:53-04:00*%
%TF.ProjectId,XIAO_REV,5849414f-5f52-4455-962e-6b696361645f,rev?*%
%TF.SameCoordinates,Original*%
%TF.FileFunction,Legend,Bot*%
%TF.FilePolarity,Positive*%
%FSLAX46Y46*%
G04 Gerber Fmt 4.6, Leading zero omitted, Abs format (unit mm)*
G04 Created by KiCad (PCBNEW 8.0.3+1) date 2024-06-27 20:46:53*
%MOMM*%
%LPD*%
G01*
G04 APERTURE LIST*
%ADD10C,0.100000*%
G04 APERTURE END LIST*
D10*
X154013609Y-75446667D02*
X154370752Y-75446667D01*
X154370752Y-75446667D02*
X154442180Y-75422858D01*
X154442180Y-75422858D02*
X154489800Y-75375239D01*
X154489800Y-75375239D02*
X154513609Y-75303810D01*
X154513609Y-75303810D02*
X154513609Y-75256191D01*
X154013609Y-75613334D02*
X154013609Y-75899048D01*
X154513609Y-75756191D02*
X154013609Y-75756191D01*
X154370752Y-76041905D02*
X154370752Y-76280000D01*
X154513609Y-75994286D02*
X154013609Y-76160952D01*
X154013609Y-76160952D02*
X154513609Y-76327619D01*
X154037419Y-76756190D02*
X154013609Y-76708571D01*
X154013609Y-76708571D02*
X154013609Y-76637142D01*
X154013609Y-76637142D02*
X154037419Y-76565714D01*
X154037419Y-76565714D02*
X154085038Y-76518095D01*
X154085038Y-76518095D02*
X154132657Y-76494285D01*
X154132657Y-76494285D02*
X154227895Y-76470476D01*
X154227895Y-76470476D02*
X154299323Y-76470476D01*
X154299323Y-76470476D02*
X154394561Y-76494285D01*
X154394561Y-76494285D02*
X154442180Y-76518095D01*
X154442180Y-76518095D02*
X154489800Y-76565714D01*
X154489800Y-76565714D02*
X154513609Y-76637142D01*
X154513609Y-76637142D02*
X154513609Y-76684761D01*
X154513609Y-76684761D02*
X154489800Y-76756190D01*
X154489800Y-76756190D02*
X154465990Y-76779999D01*
X154465990Y-76779999D02*
X154299323Y-76779999D01*
X154299323Y-76779999D02*
X154299323Y-76684761D01*
X165856390Y-76713332D02*
X165499247Y-76713332D01*
X165499247Y-76713332D02*
X165427819Y-76737141D01*
X165427819Y-76737141D02*
X165380200Y-76784760D01*
X165380200Y-76784760D02*
X165356390Y-76856189D01*
X165356390Y-76856189D02*
X165356390Y-76903808D01*
X165856390Y-76546665D02*
X165856390Y-76260951D01*
X165356390Y-76403808D02*
X165856390Y-76403808D01*
X165499247Y-76118094D02*
X165499247Y-75879999D01*
X165356390Y-76165713D02*
X165856390Y-75999047D01*
X165856390Y-75999047D02*
X165356390Y-75832380D01*
X165832580Y-75403809D02*
X165856390Y-75451428D01*
X165856390Y-75451428D02*
X165856390Y-75522857D01*
X165856390Y-75522857D02*
X165832580Y-75594285D01*
X165832580Y-75594285D02*
X165784961Y-75641904D01*
X165784961Y-75641904D02*
X165737342Y-75665714D01*
X165737342Y-75665714D02*
X165642104Y-75689523D01*
X165642104Y-75689523D02*
X165570676Y-75689523D01*
X165570676Y-75689523D02*
X165475438Y-75665714D01*
X165475438Y-75665714D02*
X165427819Y-75641904D01*
X165427819Y-75641904D02*
X165380200Y-75594285D01*
X165380200Y-75594285D02*
X165356390Y-75522857D01*
X165356390Y-75522857D02*
X165356390Y-75475238D01*
X165356390Y-75475238D02*
X165380200Y-75403809D01*
X165380200Y-75403809D02*
X165404009Y-75380000D01*
X165404009Y-75380000D02*
X165570676Y-75380000D01*
X165570676Y-75380000D02*
X165570676Y-75475238D01*
X163627619Y-74185990D02*
X163651428Y-74209800D01*
X163651428Y-74209800D02*
X163722857Y-74233609D01*
X163722857Y-74233609D02*
X163770476Y-74233609D01*
X163770476Y-74233609D02*
X163841904Y-74209800D01*
X163841904Y-74209800D02*
X163889523Y-74162180D01*
X163889523Y-74162180D02*
X163913333Y-74114561D01*
X163913333Y-74114561D02*
X163937142Y-74019323D01*
X163937142Y-74019323D02*
X163937142Y-73947895D01*
X163937142Y-73947895D02*
X163913333Y-73852657D01*
X163913333Y-73852657D02*
X163889523Y-73805038D01*
X163889523Y-73805038D02*
X163841904Y-73757419D01*
X163841904Y-73757419D02*
X163770476Y-73733609D01*
X163770476Y-73733609D02*
X163722857Y-73733609D01*
X163722857Y-73733609D02*
X163651428Y-73757419D01*
X163651428Y-73757419D02*
X163627619Y-73781228D01*
X163175238Y-74233609D02*
X163413333Y-74233609D01*
X163413333Y-74233609D02*
X163413333Y-73733609D01*
X163008571Y-74233609D02*
X163008571Y-73733609D01*
X162722857Y-74233609D02*
X162937142Y-73947895D01*
X162722857Y-73733609D02*
X163008571Y-74019323D01*
X157211904Y-74213609D02*
X157211904Y-73713609D01*
X157211904Y-73713609D02*
X157092856Y-73713609D01*
X157092856Y-73713609D02*
X157021428Y-73737419D01*
X157021428Y-73737419D02*
X156973809Y-73785038D01*
X156973809Y-73785038D02*
X156949999Y-73832657D01*
X156949999Y-73832657D02*
X156926190Y-73927895D01*
X156926190Y-73927895D02*
X156926190Y-73999323D01*
X156926190Y-73999323D02*
X156949999Y-74094561D01*
X156949999Y-74094561D02*
X156973809Y-74142180D01*
X156973809Y-74142180D02*
X157021428Y-74189800D01*
X157021428Y-74189800D02*
X157092856Y-74213609D01*
X157092856Y-74213609D02*
X157211904Y-74213609D01*
X156711904Y-74213609D02*
X156711904Y-73713609D01*
X156378571Y-73713609D02*
X156283333Y-73713609D01*
X156283333Y-73713609D02*
X156235714Y-73737419D01*
X156235714Y-73737419D02*
X156188095Y-73785038D01*
X156188095Y-73785038D02*
X156164285Y-73880276D01*
X156164285Y-73880276D02*
X156164285Y-74046942D01*
X156164285Y-74046942D02*
X156188095Y-74142180D01*
X156188095Y-74142180D02*
X156235714Y-74189800D01*
X156235714Y-74189800D02*
X156283333Y-74213609D01*
X156283333Y-74213609D02*
X156378571Y-74213609D01*
X156378571Y-74213609D02*
X156426190Y-74189800D01*
X156426190Y-74189800D02*
X156473809Y-74142180D01*
X156473809Y-74142180D02*
X156497618Y-74046942D01*
X156497618Y-74046942D02*
X156497618Y-73880276D01*
X156497618Y-73880276D02*
X156473809Y-73785038D01*
X156473809Y-73785038D02*
X156426190Y-73737419D01*
X156426190Y-73737419D02*
X156378571Y-73713609D01*
X161350476Y-80502419D02*
X161683809Y-80026228D01*
X161921904Y-80502419D02*
X161921904Y-79502419D01*
X161921904Y-79502419D02*
X161540952Y-79502419D01*
X161540952Y-79502419D02*
X161445714Y-79550038D01*
X161445714Y-79550038D02*
X161398095Y-79597657D01*
X161398095Y-79597657D02*
X161350476Y-79692895D01*
X161350476Y-79692895D02*
X161350476Y-79835752D01*
X161350476Y-79835752D02*
X161398095Y-79930990D01*
X161398095Y-79930990D02*
X161445714Y-79978609D01*
X161445714Y-79978609D02*
X161540952Y-80026228D01*
X161540952Y-80026228D02*
X161921904Y-80026228D01*
X155470476Y-78992419D02*
X155946666Y-78992419D01*
X155946666Y-78992419D02*
X155946666Y-77992419D01*
X163650476Y-79192419D02*
X164126666Y-79192419D01*
X164126666Y-79192419D02*
X164126666Y-78192419D01*
X158080476Y-88802419D02*
X158413809Y-88326228D01*
X158651904Y-88802419D02*
X158651904Y-87802419D01*
X158651904Y-87802419D02*
X158270952Y-87802419D01*
X158270952Y-87802419D02*
X158175714Y-87850038D01*
X158175714Y-87850038D02*
X158128095Y-87897657D01*
X158128095Y-87897657D02*
X158080476Y-87992895D01*
X158080476Y-87992895D02*
X158080476Y-88135752D01*
X158080476Y-88135752D02*
X158128095Y-88230990D01*
X158128095Y-88230990D02*
X158175714Y-88278609D01*
X158175714Y-88278609D02*
X158270952Y-88326228D01*
X158270952Y-88326228D02*
X158651904Y-88326228D01*
X163720476Y-88752419D02*
X164196666Y-88752419D01*
X164196666Y-88752419D02*
X164196666Y-87752419D01*
X155540476Y-88802419D02*
X156016666Y-88802419D01*
X156016666Y-88802419D02*
X156016666Y-87802419D01*
X161440476Y-88742419D02*
X161773809Y-88266228D01*
X162011904Y-88742419D02*
X162011904Y-87742419D01*
X162011904Y-87742419D02*
X161630952Y-87742419D01*
X161630952Y-87742419D02*
X161535714Y-87790038D01*
X161535714Y-87790038D02*
X161488095Y-87837657D01*
X161488095Y-87837657D02*
X161440476Y-87932895D01*
X161440476Y-87932895D02*
X161440476Y-88075752D01*
X161440476Y-88075752D02*
X161488095Y-88170990D01*
X161488095Y-88170990D02*
X161535714Y-88218609D01*
X161535714Y-88218609D02*
X161630952Y-88266228D01*
X161630952Y-88266228D02*
X162011904Y-88266228D01*
X163989999Y-92932531D02*
X163989999Y-91932531D01*
X163989999Y-91932531D02*
X163609047Y-91932531D01*
X163609047Y-91932531D02*
X163513809Y-91980150D01*
X163513809Y-91980150D02*
X163466190Y-92027769D01*
X163466190Y-92027769D02*
X163418571Y-92123007D01*
X163418571Y-92123007D02*
X163418571Y-92265864D01*
X163418571Y-92265864D02*
X163466190Y-92361102D01*
X163466190Y-92361102D02*
X163513809Y-92408721D01*
X163513809Y-92408721D02*
X163609047Y-92456340D01*
X163609047Y-92456340D02*
X163989999Y-92456340D01*
X162418571Y-92932531D02*
X162751904Y-92456340D01*
X162989999Y-92932531D02*
X162989999Y-91932531D01*
X162989999Y-91932531D02*
X162609047Y-91932531D01*
X162609047Y-91932531D02*
X162513809Y-91980150D01*
X162513809Y-91980150D02*
X162466190Y-92027769D01*
X162466190Y-92027769D02*
X162418571Y-92123007D01*
X162418571Y-92123007D02*
X162418571Y-92265864D01*
X162418571Y-92265864D02*
X162466190Y-92361102D01*
X162466190Y-92361102D02*
X162513809Y-92408721D01*
X162513809Y-92408721D02*
X162609047Y-92456340D01*
X162609047Y-92456340D02*
X162989999Y-92456340D01*
X161799523Y-91932531D02*
X161609047Y-91932531D01*
X161609047Y-91932531D02*
X161513809Y-91980150D01*
X161513809Y-91980150D02*
X161418571Y-92075388D01*
X161418571Y-92075388D02*
X161370952Y-92265864D01*
X161370952Y-92265864D02*
X161370952Y-92599197D01*
X161370952Y-92599197D02*
X161418571Y-92789673D01*
X161418571Y-92789673D02*
X161513809Y-92884912D01*
X161513809Y-92884912D02*
X161609047Y-92932531D01*
X161609047Y-92932531D02*
X161799523Y-92932531D01*
X161799523Y-92932531D02*
X161894761Y-92884912D01*
X161894761Y-92884912D02*
X161989999Y-92789673D01*
X161989999Y-92789673D02*
X162037618Y-92599197D01*
X162037618Y-92599197D02*
X162037618Y-92265864D01*
X162037618Y-92265864D02*
X161989999Y-92075388D01*
X161989999Y-92075388D02*
X161894761Y-91980150D01*
X161894761Y-91980150D02*
X161799523Y-91932531D01*
X160180475Y-92932531D02*
X160180475Y-91932531D01*
X160180475Y-91932531D02*
X159847142Y-92646816D01*
X159847142Y-92646816D02*
X159513809Y-91932531D01*
X159513809Y-91932531D02*
X159513809Y-92932531D01*
X159037618Y-92932531D02*
X159037618Y-91932531D01*
X157990000Y-92837292D02*
X158037619Y-92884912D01*
X158037619Y-92884912D02*
X158180476Y-92932531D01*
X158180476Y-92932531D02*
X158275714Y-92932531D01*
X158275714Y-92932531D02*
X158418571Y-92884912D01*
X158418571Y-92884912D02*
X158513809Y-92789673D01*
X158513809Y-92789673D02*
X158561428Y-92694435D01*
X158561428Y-92694435D02*
X158609047Y-92503959D01*
X158609047Y-92503959D02*
X158609047Y-92361102D01*
X158609047Y-92361102D02*
X158561428Y-92170626D01*
X158561428Y-92170626D02*
X158513809Y-92075388D01*
X158513809Y-92075388D02*
X158418571Y-91980150D01*
X158418571Y-91980150D02*
X158275714Y-91932531D01*
X158275714Y-91932531D02*
X158180476Y-91932531D01*
X158180476Y-91932531D02*
X158037619Y-91980150D01*
X158037619Y-91980150D02*
X157990000Y-92027769D01*
X156990000Y-92932531D02*
X157323333Y-92456340D01*
X157561428Y-92932531D02*
X157561428Y-91932531D01*
X157561428Y-91932531D02*
X157180476Y-91932531D01*
X157180476Y-91932531D02*
X157085238Y-91980150D01*
X157085238Y-91980150D02*
X157037619Y-92027769D01*
X157037619Y-92027769D02*
X156990000Y-92123007D01*
X156990000Y-92123007D02*
X156990000Y-92265864D01*
X156990000Y-92265864D02*
X157037619Y-92361102D01*
X157037619Y-92361102D02*
X157085238Y-92408721D01*
X157085238Y-92408721D02*
X157180476Y-92456340D01*
X157180476Y-92456340D02*
X157561428Y-92456340D01*
X156370952Y-91932531D02*
X156180476Y-91932531D01*
X156180476Y-91932531D02*
X156085238Y-91980150D01*
X156085238Y-91980150D02*
X155990000Y-92075388D01*
X155990000Y-92075388D02*
X155942381Y-92265864D01*
X155942381Y-92265864D02*
X155942381Y-92599197D01*
X155942381Y-92599197D02*
X155990000Y-92789673D01*
X155990000Y-92789673D02*
X156085238Y-92884912D01*
X156085238Y-92884912D02*
X156180476Y-92932531D01*
X156180476Y-92932531D02*
X156370952Y-92932531D01*
X156370952Y-92932531D02*
X156466190Y-92884912D01*
X156466190Y-92884912D02*
X156561428Y-92789673D01*
X156561428Y-92789673D02*
X156609047Y-92599197D01*
X156609047Y-92599197D02*
X156609047Y-92265864D01*
X156609047Y-92265864D02*
X156561428Y-92075388D01*
X156561428Y-92075388D02*
X156466190Y-91980150D01*
X156466190Y-91980150D02*
X156370952Y-91932531D01*
X163751904Y-94542475D02*
X163751904Y-93542475D01*
X163751904Y-93542475D02*
X163370952Y-93542475D01*
X163370952Y-93542475D02*
X163275714Y-93590094D01*
X163275714Y-93590094D02*
X163228095Y-93637713D01*
X163228095Y-93637713D02*
X163180476Y-93732951D01*
X163180476Y-93732951D02*
X163180476Y-93875808D01*
X163180476Y-93875808D02*
X163228095Y-93971046D01*
X163228095Y-93971046D02*
X163275714Y-94018665D01*
X163275714Y-94018665D02*
X163370952Y-94066284D01*
X163370952Y-94066284D02*
X163751904Y-94066284D01*
X162751904Y-94542475D02*
X162751904Y-93542475D01*
X162275714Y-94542475D02*
X162275714Y-93542475D01*
X162275714Y-93542475D02*
X161704286Y-94542475D01*
X161704286Y-94542475D02*
X161704286Y-93542475D01*
X161275714Y-94494856D02*
X161132857Y-94542475D01*
X161132857Y-94542475D02*
X160894762Y-94542475D01*
X160894762Y-94542475D02*
X160799524Y-94494856D01*
X160799524Y-94494856D02*
X160751905Y-94447236D01*
X160751905Y-94447236D02*
X160704286Y-94351998D01*
X160704286Y-94351998D02*
X160704286Y-94256760D01*
X160704286Y-94256760D02*
X160751905Y-94161522D01*
X160751905Y-94161522D02*
X160799524Y-94113903D01*
X160799524Y-94113903D02*
X160894762Y-94066284D01*
X160894762Y-94066284D02*
X161085238Y-94018665D01*
X161085238Y-94018665D02*
X161180476Y-93971046D01*
X161180476Y-93971046D02*
X161228095Y-93923427D01*
X161228095Y-93923427D02*
X161275714Y-93828189D01*
X161275714Y-93828189D02*
X161275714Y-93732951D01*
X161275714Y-93732951D02*
X161228095Y-93637713D01*
X161228095Y-93637713D02*
X161180476Y-93590094D01*
X161180476Y-93590094D02*
X161085238Y-93542475D01*
X161085238Y-93542475D02*
X160847143Y-93542475D01*
X160847143Y-93542475D02*
X160704286Y-93590094D01*
X159323333Y-93542475D02*
X159132857Y-93542475D01*
X159132857Y-93542475D02*
X159037619Y-93590094D01*
X159037619Y-93590094D02*
X158942381Y-93685332D01*
X158942381Y-93685332D02*
X158894762Y-93875808D01*
X158894762Y-93875808D02*
X158894762Y-94209141D01*
X158894762Y-94209141D02*
X158942381Y-94399617D01*
X158942381Y-94399617D02*
X159037619Y-94494856D01*
X159037619Y-94494856D02*
X159132857Y-94542475D01*
X159132857Y-94542475D02*
X159323333Y-94542475D01*
X159323333Y-94542475D02*
X159418571Y-94494856D01*
X159418571Y-94494856D02*
X159513809Y-94399617D01*
X159513809Y-94399617D02*
X159561428Y-94209141D01*
X159561428Y-94209141D02*
X159561428Y-93875808D01*
X159561428Y-93875808D02*
X159513809Y-93685332D01*
X159513809Y-93685332D02*
X159418571Y-93590094D01*
X159418571Y-93590094D02*
X159323333Y-93542475D01*
X158466190Y-94542475D02*
X158466190Y-93542475D01*
X158466190Y-93542475D02*
X157894762Y-94542475D01*
X157894762Y-94542475D02*
X157894762Y-93542475D01*
X156942381Y-94542475D02*
X157418571Y-94542475D01*
X157418571Y-94542475D02*
X157418571Y-93542475D01*
X156418571Y-94066284D02*
X156418571Y-94542475D01*
X156751904Y-93542475D02*
X156418571Y-94066284D01*
X156418571Y-94066284D02*
X156085238Y-93542475D01*
X161680476Y-96533371D02*
X161728095Y-96485752D01*
X161728095Y-96485752D02*
X161823333Y-96342895D01*
X161823333Y-96342895D02*
X161870952Y-96247657D01*
X161870952Y-96247657D02*
X161918571Y-96104800D01*
X161918571Y-96104800D02*
X161966190Y-95866704D01*
X161966190Y-95866704D02*
X161966190Y-95676228D01*
X161966190Y-95676228D02*
X161918571Y-95438133D01*
X161918571Y-95438133D02*
X161870952Y-95295276D01*
X161870952Y-95295276D02*
X161823333Y-95200038D01*
X161823333Y-95200038D02*
X161728095Y-95057180D01*
X161728095Y-95057180D02*
X161680476Y-95009561D01*
X161347142Y-96104800D02*
X161204285Y-96152419D01*
X161204285Y-96152419D02*
X160966190Y-96152419D01*
X160966190Y-96152419D02*
X160870952Y-96104800D01*
X160870952Y-96104800D02*
X160823333Y-96057180D01*
X160823333Y-96057180D02*
X160775714Y-95961942D01*
X160775714Y-95961942D02*
X160775714Y-95866704D01*
X160775714Y-95866704D02*
X160823333Y-95771466D01*
X160823333Y-95771466D02*
X160870952Y-95723847D01*
X160870952Y-95723847D02*
X160966190Y-95676228D01*
X160966190Y-95676228D02*
X161156666Y-95628609D01*
X161156666Y-95628609D02*
X161251904Y-95580990D01*
X161251904Y-95580990D02*
X161299523Y-95533371D01*
X161299523Y-95533371D02*
X161347142Y-95438133D01*
X161347142Y-95438133D02*
X161347142Y-95342895D01*
X161347142Y-95342895D02*
X161299523Y-95247657D01*
X161299523Y-95247657D02*
X161251904Y-95200038D01*
X161251904Y-95200038D02*
X161156666Y-95152419D01*
X161156666Y-95152419D02*
X160918571Y-95152419D01*
X160918571Y-95152419D02*
X160775714Y-95200038D01*
X160347142Y-96152419D02*
X160347142Y-95152419D01*
X160347142Y-95152419D02*
X160013809Y-95866704D01*
X160013809Y-95866704D02*
X159680476Y-95152419D01*
X159680476Y-95152419D02*
X159680476Y-96152419D01*
X159204285Y-96152419D02*
X159204285Y-95152419D01*
X159204285Y-95152419D02*
X158966190Y-95152419D01*
X158966190Y-95152419D02*
X158823333Y-95200038D01*
X158823333Y-95200038D02*
X158728095Y-95295276D01*
X158728095Y-95295276D02*
X158680476Y-95390514D01*
X158680476Y-95390514D02*
X158632857Y-95580990D01*
X158632857Y-95580990D02*
X158632857Y-95723847D01*
X158632857Y-95723847D02*
X158680476Y-95914323D01*
X158680476Y-95914323D02*
X158728095Y-96009561D01*
X158728095Y-96009561D02*
X158823333Y-96104800D01*
X158823333Y-96104800D02*
X158966190Y-96152419D01*
X158966190Y-96152419D02*
X159204285Y-96152419D01*
X158299523Y-96533371D02*
X158251904Y-96485752D01*
X158251904Y-96485752D02*
X158156666Y-96342895D01*
X158156666Y-96342895D02*
X158109047Y-96247657D01*
X158109047Y-96247657D02*
X158061428Y-96104800D01*
X158061428Y-96104800D02*
X158013809Y-95866704D01*
X158013809Y-95866704D02*
X158013809Y-95676228D01*
X158013809Y-95676228D02*
X158061428Y-95438133D01*
X158061428Y-95438133D02*
X158109047Y-95295276D01*
X158109047Y-95295276D02*
X158156666Y-95200038D01*
X158156666Y-95200038D02*
X158251904Y-95057180D01*
X158251904Y-95057180D02*
X158299523Y-95009561D01*
X157990476Y-80562419D02*
X158323809Y-80086228D01*
X158561904Y-80562419D02*
X158561904Y-79562419D01*
X158561904Y-79562419D02*
X158180952Y-79562419D01*
X158180952Y-79562419D02*
X158085714Y-79610038D01*
X158085714Y-79610038D02*
X158038095Y-79657657D01*
X158038095Y-79657657D02*
X157990476Y-79752895D01*
X157990476Y-79752895D02*
X157990476Y-79895752D01*
X157990476Y-79895752D02*
X158038095Y-79990990D01*
X158038095Y-79990990D02*
X158085714Y-80038609D01*
X158085714Y-80038609D02*
X158180952Y-80086228D01*
X158180952Y-80086228D02*
X158561904Y-80086228D01*
M02*
